# xmcd
# Copyright (C) 1995-1998 Ti Kan
#
# Track frame offsets:
#       150
#       19074
#       36726
#       55040
#
# Disc length: 920 seconds
#
# Revision: 0
# Processed by: cddbd v1.5.2PL0 Copyright (c) Steve Scherf et al.
# Submitted via: CD-Import v1.0
#
DISCID=2f039604
DTITLE=Driftwood - Driftwood
DYEAR=10
DGENRE=
TTITLE0=Happy To Be Adored
TTITLE1=You Are Like This
TTITLE2=The Fear
TTITLE3=Thoughts You Can't Avoid
EXTD=
EXTT0=
EXTT1=
EXTT2=
EXTT3=
PLAYORDER=
